<svg width="0" height="0">
  <symbol id="header-envelope" width="16" height="12" xmlns="http://www.w3.org/2000/svg" viewBox="0 0 16 12">
    <path d="M14.5 0h-13C.673 0 0 .673 0 1.5v9c0 .827.673 1.5 1.5 1.5h13c.827 0 1.5-.673 1.5-1.5v-9c0-.827-.673-1.5-1.5-1.5zm0 1c.068 0 .133.014.192.039L8 6.839l-6.692-5.8A.498.498 0 011.5 1h13zm0 10h-13a.5.5 0 01-.5-.5V2.095l6.672 5.783a.5.5 0 00.656 0L15 2.095V10.5a.5.5 0 01-.5.5z"></path>
  </symbol>
  <symbol id="header-smartphone" width="10" height="16" xmlns="http://www.w3.org/2000/svg" viewBox="0 0 10 16">
    <path d="M8.5 0h-7C.673 0 0 .673 0 1.5v13c0 .827.673 1.5 1.5 1.5h7c.827 0 1.5-.673 1.5-1.5v-13C10 .673 9.327 0 8.5 0zm-7 1h7a.5.5 0 01.5.5V12H1V1.5a.5.5 0 01.5-.5zm7 14h-7a.5.5 0 01-.5-.5V13h8v1.5a.5.5 0 01-.5.5z"></path>
    <path d="M2.354 13.739a.445.445 0 010 .66.525.525 0 01-.708 0 .445.445 0 010-.66.525.525 0 01.708 0z"></path>
  </symbol>
</svg>